<svg font-size="48px" width="1em" height="1em" viewBox="0 0 48 48" fill="none" xmlns="http://www.w3.org/2000/svg"><path d="M43.724 28.0024C43.7276 30.7344 43.1604 33.4371 42.0588 35.9372H5.94062C4.76072 33.2509 4.19497 30.3352 4.2846 27.4025C4.37423 24.4699 5.11698 21.5942 6.45873 18.9849C7.80048 16.3757 9.70743 14.0987 12.0406 12.3198C14.3738 10.5408 17.0745 9.30484 19.9459 8.70183C22.8173 8.09883 25.787 8.14399 28.6387 8.83405C31.4904 9.5241 34.1522 10.8417 36.4303 12.6907C38.7083 14.5398 40.5451 16.8738 41.8069 19.5226C43.0687 22.1714 43.7236 25.0684 43.724 28.0024Z" fill="#F2F2F2"></path><path d="M2.0459 35.937H46.6601" stroke="#999999" stroke-width="1.3" stroke-miterlimit="10" stroke-linecap="round"></path><path d="M11.1397 22.8921H14.5773C14.6752 22.8921 14.7691 22.931 14.8384 23.0002C14.9076 23.0695 14.9465 23.1634 14.9465 23.2613V35.937H10.7705V23.2613C10.7705 23.1634 10.8094 23.0695 10.8787 23.0002C10.9479 22.931 11.0418 22.8921 11.1397 22.8921Z" fill="#CCCCCC" stroke="#999999" stroke-width="1.3" stroke-miterlimit="10"></path><path d="M17.8302 14.2817H21.2677C21.3656 14.2817 21.4596 14.3206 21.5288 14.3899C21.598 14.4591 21.6369 14.553 21.6369 14.651V35.9371H17.4609V14.651C17.4609 14.553 17.4998 14.4591 17.5691 14.3899C17.6383 14.3206 17.7322 14.2817 17.8302 14.2817Z" fill="#F2F2F2" stroke="#999999" stroke-width="1.3" stroke-miterlimit="10"></path><path d="M24.5167 16.8589H27.9542C28.0522 16.8589 28.1461 16.8978 28.2153 16.967C28.2846 17.0363 28.3235 17.1302 28.3235 17.2281V35.937H24.1475V17.2281C24.1475 17.1302 24.1864 17.0363 24.2556 16.967C24.3249 16.8978 24.4188 16.8589 24.5167 16.8589Z" fill="#CCCCCC" stroke="#999999" stroke-width="1.3" stroke-miterlimit="10"></path><path d="M31.2032 9.82178H34.6408C34.7387 9.82178 34.8326 9.86068 34.9018 9.92992C34.9711 9.99917 35.01 10.0931 35.01 10.191V35.9375H30.834V10.191C30.834 10.0931 30.8729 9.99917 30.9421 9.92992C31.0114 9.86068 31.1053 9.82178 31.2032 9.82178Z" fill="#F2F2F2" stroke="#999999" stroke-width="1.3" stroke-miterlimit="10"></path><path d="M9.12768 18.0996C10.1167 18.0996 10.9185 17.2978 10.9185 16.3088C10.9185 15.3198 10.1167 14.5181 9.12768 14.5181C8.13867 14.5181 7.33691 15.3198 7.33691 16.3088C7.33691 17.2978 8.13867 18.0996 9.12768 18.0996Z" fill="#999999"></path><path d="M42.0298 14.5146C42.7048 14.5146 43.2519 13.9674 43.2519 13.2925C43.2519 12.6175 42.7048 12.0703 42.0298 12.0703C41.3548 12.0703 40.8076 12.6175 40.8076 13.2925C40.8076 13.9674 41.3548 14.5146 42.0298 14.5146Z" fill="#CCCCCC"></path><path d="M12.9894 8.56611C14.1333 8.56611 15.0607 7.63872 15.0607 6.49472C15.0607 5.35073 14.1333 4.42334 12.9894 4.42334C11.8454 4.42334 10.918 5.35073 10.918 6.49472C10.918 7.63872 11.8454 8.56611 12.9894 8.56611Z" stroke="#CCCCCC" stroke-width="2" stroke-miterlimit="10"></path><path d="M31.6832 5.85959C32.1522 5.85959 32.5324 5.47938 32.5324 5.01036C32.5324 4.54135 32.1522 4.16113 31.6832 4.16113C31.2142 4.16113 30.834 4.54135 30.834 5.01036C30.834 5.47938 31.2142 5.85959 31.6832 5.85959Z" fill="#999999"></path></svg>